# xmcd
#
# Track frame offsets: 
#        150
#        13935
#        31457
#        47150
#        68387
#        84112
#        97647
#        109755
#        120650
#        132525
#        145925
#
# Disc length: 2219 seconds
#
# Revision: 1
# Processed by: cddbd v1.5.2PL0 Copyright (c) Steve Scherf et al.
# Submitted via: ExactAudioCopyFreeDBPlugin 1.0
#
DISCID=8808a90b
DTITLE=The Fabulous Thunderbirds - Girls Go Wild
DYEAR=1979
DGENRE=Blues
TTITLE0=Wait On Time
TTITLE1=Scratch My Back
TTITLE2=Rich Woman
TTITLE3=Full-time Lover
TTITLE4=Pocket Rocket
TTITLE5=She's Tuff
TTITLE6=Marked Deck
TTITLE7=Walkin' To My Baby
TTITLE8=Rock With Me
TTITLE9=C-boy's Blues
TTITLE10=Let Me In
EXTD=
EXTT0=
EXTT1=
EXTT2=
EXTT3=
EXTT4=
EXTT5=
EXTT6=
EXTT7=
EXTT8=
EXTT9=
EXTT10=
PLAYORDER=
